<?xml version="1.0" encoding="utf-8"?>
<!-- Generator: Adobe Illustrator 16.0.0, SVG Export Plug-In . SVG Version: 6.00 Build 0)  -->
<!DOCTYPE svg PUBLIC "-//W3C//DTD SVG 1.1//EN" "http://www.w3.org/Graphics/SVG/1.1/DTD/svg11.dtd">
<svg version="1.1" id="Calque_1" xmlns="http://www.w3.org/2000/svg" xmlns:xlink="http://www.w3.org/1999/xlink" x="0px" y="0px"
	 width="50px" height="50px" viewBox="0 0 50 50" enable-background="new 0 0 50 50" xml:space="preserve">
<g>
	<g>
		<g>
			<path d="M8.089,7.97c-8.731,8.731-9.35,22.688-1.512,32.105c-1.031,2.201-2.406,3.646-3.988,4.4
				c-0.825,0.412-1.238,1.238-1.1,2.131c0.137,0.895,0.825,1.583,1.719,1.72c1.307,0.206,5.844,0.618,10.313-2.543
				c3.575,1.925,7.494,2.886,11.412,2.886c6.188,0,12.307-2.406,16.914-7.011c9.281-9.282,9.281-24.476,0-33.757
				C32.564-1.312,17.439-1.312,8.089,7.97 M40.265,40.146c-6.944,6.943-17.738,8.318-26.194,3.368l-0.687-0.413l-0.619,0.481
				c-2.819,2.199-6.05,2.749-8.388,2.613c1.856-1.169,3.438-3.095,4.606-5.776l0.274-0.688l-0.481-0.549
				c-7.562-8.525-7.15-21.52,0.895-29.562c4.056-4.056,9.487-6.325,15.262-6.325S36.14,5.564,40.194,9.62
				C48.722,18.007,48.722,31.688,40.265,40.146 M23.558,23.439h2.957v2.957h-2.957V23.439z M31.121,23.439h2.956v2.957h-2.956
				V23.439z M15.927,23.439h2.957v2.957h-2.957V23.439z"/>
			<path d="M24.933,49.669c-3.922,0-7.832-0.939-11.345-2.723c-4.54,2.957-9.074,2.596-10.536,2.368
				c-1.321-0.202-2.348-1.23-2.551-2.557c-0.205-1.329,0.439-2.576,1.642-3.177c1.304-0.623,2.393-1.755,3.253-3.376
				c-7.68-9.753-6.86-24.096,1.987-32.942C12.101,2.579,18.367,0,25.028,0c6.627,0,12.851,2.554,17.523,7.191
				c9.699,9.699,9.699,25.477,0.003,35.174C37.842,47.075,31.584,49.669,24.933,49.669z M13.45,44.609l0.545,0.293
				c3.361,1.811,7.143,2.767,10.938,2.767c6.117,0,11.873-2.386,16.207-6.718c8.916-8.917,8.916-23.426,0-32.343
				C36.847,4.348,31.124,2,25.028,2C18.898,2,13.133,4.372,8.794,8.679c-8.276,8.276-8.913,21.787-1.448,30.756l0.407,0.488
				l-0.27,0.575c-1.101,2.35-2.602,3.991-4.463,4.879c-0.342,0.171-0.54,0.472-0.556,0.84l1.38-0.869
				c1.737-1.094,3.158-2.887,4.223-5.329l0.035-0.089l-0.078-0.089c-7.904-8.91-7.493-22.498,0.939-30.929
				c4.267-4.268,9.938-6.618,15.969-6.618s11.703,2.351,15.968,6.618c4.292,4.221,6.672,9.864,6.697,15.884
				c0.025,6.055-2.328,11.757-6.627,16.055c-4.266,4.265-9.948,6.613-16.002,6.613c-4.008,0-7.952-1.068-11.405-3.089l-0.109-0.065
				l-0.077,0.06c-3.171,2.474-6.579,2.844-8.328,2.844c-0.251,0-0.496-0.008-0.732-0.021l-1.478-0.086
				c0.143,0.119,0.32,0.2,0.519,0.23c1.3,0.204,5.496,0.521,9.584-2.371L13.45,44.609z M13.311,41.89l1.275,0.767
				c3.137,1.836,6.731,2.81,10.384,2.81c5.52,0,10.7-2.141,14.588-6.027c3.918-3.919,6.063-9.115,6.041-14.633
				c-0.022-5.483-2.191-10.623-6.105-14.473c-3.895-3.896-9.063-6.038-14.56-6.038s-10.666,2.142-14.555,6.032
				c-7.686,7.684-8.061,20.067-0.854,28.191l0.889,1.015L9.912,40.79c-0.722,1.657-1.594,3.06-2.606,4.201
				c1.44-0.283,3.181-0.9,4.844-2.197L13.311,41.89z M35.077,27.396h-4.956v-4.957h4.956V27.396z M32.121,25.396h0.956v-0.957
				h-0.956V25.396z M27.515,27.396h-4.957v-4.957h4.957V27.396z M24.558,25.396h0.957v-0.957h-0.957V25.396z M19.883,27.396h-4.957
				v-4.957h4.957V27.396z M16.927,25.396h0.957v-0.957h-0.957V25.396z"/>
		</g>
	</g>
</g>
</svg>
