<?xml version="1.0" encoding="utf-8"?>
<!-- Generator: Adobe Illustrator 16.0.0, SVG Export Plug-In . SVG Version: 6.00 Build 0)  -->
<!DOCTYPE svg PUBLIC "-//W3C//DTD SVG 1.1//EN" "http://www.w3.org/Graphics/SVG/1.1/DTD/svg11.dtd">
<svg version="1.1" id="Calque_1" xmlns="http://www.w3.org/2000/svg" xmlns:xlink="http://www.w3.org/1999/xlink" x="0px" y="0px"
	 width="100px" height="300px" viewBox="0 0 100 300" enable-background="new 0 0 100 300" xml:space="preserve">
<g id="Calque_2">
	<rect x="18.163" y="120.398" fill="#FFFFFF" stroke="#000000" stroke-miterlimit="10" width="66.58" height="93.511"/>
</g>
<g id="Calque_1_1_">
	<g>
		<path fill="#D5D5D5" d="M89.868,115.984c0-16.084-15.337-31.046-18.141-33.852c-2.806-2.805-6.92-5.05-6.92-11.408
			c0-1.871,0-6.995-0.038-13.354H36.304c-0.038,6.358-0.038,11.482-0.038,13.354c0,6.358-4.115,8.603-6.919,11.408
			c-2.806,2.806-18.142,17.768-18.142,33.852c0,16.083-0.935,161.402-0.935,168.509s2.805,12.157,10.286,12.157s29.999,0,29.999,0
			s22.518,0,29.999,0c7.482,0,10.285-5.05,10.285-12.157S89.868,132.067,89.868,115.984z M80.441,205.308H20.595v-80.422h59.847
			V205.308z"/>
		<path fill="#D5D5D5" d="M36.416,17.833c0,2.282-0.075,22.705-0.149,37.704h28.466c-0.037-14.999-0.15-35.422-0.15-37.704
			c0.937,0,1.497-0.935,1.497-2.245c0-1.309,0-2.244,0-4.862s-2.059-2.618-2.059-2.618s0-2.244,0-3.74
			C64.021,2.871,63.085,1,60.843,1C58.598,1,50.48,1,50.48,1S42.363,1,40.12,1c-2.245,0-3.18,1.871-3.18,3.367
			c0,1.496,0,3.74,0,3.74s-2.058,0-2.058,2.618s0,3.554,0,4.862C34.882,16.897,35.481,17.833,36.416,17.833z"/>
	</g>
</g>
</svg>
