<?xml version="1.0" encoding="utf-8"?>
<!-- Generator: Adobe Illustrator 16.0.0, SVG Export Plug-In . SVG Version: 6.00 Build 0)  -->
<!DOCTYPE svg PUBLIC "-//W3C//DTD SVG 1.1//EN" "http://www.w3.org/Graphics/SVG/1.1/DTD/svg11.dtd">
<svg version="1.1" id="Calque_1" xmlns="http://www.w3.org/2000/svg" xmlns:xlink="http://www.w3.org/1999/xlink" x="0px" y="0px"
	 width="48px" height="48px" viewBox="0 0 48 48" enable-background="new 0 0 48 48" xml:space="preserve">
<path fill="none" d="M0,0h48v48H0V0z"/>
<g id="Menu">
	<path fill="#121313" d="M9,15h30c0.552,0,1-0.448,1-1s-0.448-1-1-1H9c-0.552,0-1,0.448-1,1S8.448,15,9,15z"/>
	<path fill="#121313" d="M39,23H9c-0.552,0-1,0.448-1,1s0.448,1,1,1h30c0.552,0,1-0.448,1-1S39.552,23,39,23z"/>
	<path fill="#121313" d="M39,33H9c-0.552,0-1,0.448-1,1s0.448,1,1,1h30c0.552,0,1-0.448,1-1S39.552,33,39,33z"/>
</g>
</svg>
