<?xml version="1.0" encoding="utf-8"?>
<!-- Generator: Adobe Illustrator 22.0.1, SVG Export Plug-In . SVG Version: 6.00 Build 0)  -->
<svg version="1.1" id="Calque_1" xmlns="http://www.w3.org/2000/svg" xmlns:xlink="http://www.w3.org/1999/xlink" x="0px" y="0px"
	 viewBox="0 0 283.5 283.5" style="enable-background:new 0 0 283.5 283.5;" xml:space="preserve">
<style type="text/css">
	.st0{display:none;fill:#BAA571;}
	.st1{fill:#BAA571;}
	.st2{display:none;}
	.st3{display:inline;}
</style>
<path class="st0" d="M151,74.3h-10V29h10V74.3z M224.2,118.3v-10h-45.4v10H224.2z M67.5,118.3h45.4v-10H67.5V118.3z M87.5,47.1
	l-7.3,7.2l32.1,32l7.3-7.2L87.5,47.1z M168.3,81.8l7.3,7.2l32.1-32l-7.3-7.2L168.3,81.8z M138.9,251h-22.4c-7.3,0-13.6-3.3-18.2-8.4
	c-2.4,2.4-6.1,3.9-9.7,3.9H71.4c-7.9,0-13.9-6.3-13.9-13.9v-68.2c0-7.8,6.4-13.9,13.9-13.9h17.2c4.2,0,7.9,1.8,10.3,4.5l2.4-0.6
	c0.9-0.3,26.9-7.8,26.9-29.9V92.1l3.6-1.2c0.6-0.3,14.5-4.5,25.1,3c6.7,4.8,9.7,13,9.7,24.1v24.7h10h19.4h5.4
	c13.3,0,23.9,10.9,23.9,23.8v1.5l-9.4,59.7c-1.8,14.8-12.1,23.2-28.4,23.2h-2.7h-8.2h-35.4H138.9L138.9,251z M92.6,164.5
	c0-2.1-1.8-3.9-3.9-3.9H71.4c-2.1,0-3.9,1.8-3.9,3.9v68.2c0,2.1,1.8,3.9,3.9,3.9h17.2c2.1,0,3.9-1.8,3.9-3.9V164.5z M138.9,241h2.4
	h35.1h8.2h2.7c10.9,0,17.2-4.8,18.5-14.5v-0.3l9.4-59.4v-0.3c0-7.5-6.4-13.9-13.9-13.9h-5.4h-19.4h-20.3V118c0-7.8-1.8-13-5.7-16
	c-3.9-2.7-9.1-2.7-12.4-2.4v24.7c0,29.6-33,39.2-34.2,39.5l-1.2,0.3l0,0v62.7c0,7.5,6.4,13.9,13.9,13.9h22.4V241z"/>
<path class="st1" d="M237.7,85.7h-32.5V62H50.7v33.8H2v9.9h50.2l0,0h8.4V71.9h134.7v13.5v103.9h-72.7c-3-8.7-11.1-15.3-21-15.3
	c-9.9,0-18,6.3-21,15.3H60.6v-13.8h-9.9v23.7h28.9c1.5,10.8,10.8,18.9,21.9,18.9c11.1,0,20.4-8.1,21.9-18.9h72.1h9.9h8.4
	c1.5,10.8,10.8,18.9,21.9,18.9s20.4-8.1,21.9-18.9H281v-65C280.1,104.8,263.5,85.7,237.7,85.7z M101.2,208.4c-6.6,0-12-5.4-12-12
	c0-6.6,5.4-12,12-12c6.6,0,12,5.4,12,12C113.2,203.1,107.8,208.4,101.2,208.4z M235.3,208.4c-6.6,0-12-5.4-12-12c0-6.6,5.4-12,12-12
	s12,5.4,12,12C247.3,203.1,241.9,208.4,235.3,208.4z M270.1,189.6h-13.8c-3-8.7-11.1-15.3-21-15.3c-9.6,0-18,6.3-21,15.3h-9.3v-94
	h32.5c20.1,0,32.5,15,32.5,38.9v55.1H270.1z M51.9,135.7H9.5v-9.9h40.9v-10.2h9.9v20.1H51.9L51.9,135.7z M51.9,165.6H16.7v-9.9h33.7
	v-10.2h9.9v20.1H51.9L51.9,165.6z"/>
<g class="st2">
	<g class="st3">
		<path class="st1" d="M224,187.6v-13.2c0-15.6-12.6-28.1-28.2-28.1c-15.6,0-28.2,12.6-28.2,28.1v13.2h-13.5V245h83.4v-57.4H224z
			 M177.8,174.4c0-10.2,8.1-18.2,18.3-18.2c10.2,0,18.3,8.1,18.3,18.2v13.5h-36.6V174.4z M227.9,235.2h-63.6v-37.4h63.6V235.2z
			 M55.4,218.1L67.1,86.2h21.3v18.5h9.9V86.2h62.1v18.5h9.9V86.2h21.6l4.5,50.6c3.5,0.1,6.9,0.6,10,1.7l-5.5-62.2h-30.3V76
			c0-22.7-18.3-41-41.1-41c-22.8,0-41.1,18.2-41.1,41l-30.3,0.3L45.5,217.5v0.3c0,15,13.8,27.2,30.9,27.2h68.8v-9.9H76.4
			C65,235.2,55.4,227.4,55.4,218.1z M98.6,76c-0.3-17.1,13.8-31.1,30.9-31.1S160.7,59,160.7,76v0.3H98.6V76z"/>
	</g>
</g>
</svg>
