<svg fill="#BAA571" xmlns="http://www.w3.org/2000/svg" xmlns:xlink="http://www.w3.org/1999/xlink" version="1.1" x="0px" y="0px" viewBox="0 0 100 100" enable-background="new 0 0 100 100" xml:space="preserve"><g><path d="M87.187,54.701c-3.9-1.066-7.198-3.631-9.209-7.119c1.583-2.215,2.443-4.875,2.443-7.619c0-1.105-0.896-2-2-2H62.999   c0.026-0.291,0.044-0.584,0.044-0.881c0-5.355-4.356-9.711-9.711-9.711s-9.711,4.355-9.711,9.711c0,0.305,0.018,0.607,0.046,0.904   c-10.739,0.277-19.896,7.008-23.732,16.451c-0.025,0.023-0.053,0.039-0.076,0.062c-0.176,0.176-0.381,0.203-0.488,0.203   c-0.106,0-0.311-0.027-0.487-0.203c-0.174-0.176-0.201-0.379-0.201-0.486s0.026-0.312,0.202-0.488l1.474-1.475   c0.885-0.885,1.374-2.062,1.375-3.314c0-1.254-0.487-2.432-1.373-3.316c-1.829-1.83-4.805-1.83-6.634,0l-1.8,1.799   c-0.781,0.781-0.781,2.047,0,2.828c0.78,0.781,2.048,0.781,2.828,0l1.8-1.799c0.27-0.271,0.708-0.271,0.978,0   c0.174,0.174,0.2,0.379,0.2,0.486c0,0.105-0.027,0.312-0.203,0.488l-1.476,1.475c-0.885,0.887-1.372,2.064-1.372,3.316   c0,1.254,0.488,2.432,1.372,3.312c0.708,0.709,1.605,1.15,2.577,1.305c-0.406,1.834-0.626,3.738-0.626,5.693   c0,3.021,0.53,6.018,1.577,8.914c0.022,0.168,0.066,0.336,0.132,0.498l7.868,19.219c0.308,0.75,1.039,1.242,1.851,1.242h10.106   c1.104,0,2-0.896,2-2v-3.307h18.646l1.807,4.111c0.319,0.727,1.038,1.195,1.831,1.195h10.106c1.104,0,2-0.896,2-2v-9.32   c0-6.865,4.63-12.928,11.259-14.742c0.869-0.236,1.472-1.027,1.472-1.928v-9.576C88.66,55.729,88.057,54.939,87.187,54.701z    M53.332,31.371c3.149,0,5.711,2.562,5.711,5.711s-2.562,5.711-5.711,5.711s-5.711-2.562-5.711-5.711S50.183,31.371,53.332,31.371z    M84.66,64.744c-7.568,2.74-12.731,9.988-12.731,18.133v7.32h-6.801l-1.807-4.111c-0.319-0.727-1.038-1.195-1.831-1.195H39.539   c-1.104,0-2,0.896-2,2v3.307h-6.764L23.59,72.648c-0.021-0.129-0.056-0.258-0.104-0.383c-0.984-2.58-1.482-5.252-1.482-7.941   c0-12.326,10.027-22.355,22.354-22.355c0.056,0,0.111-0.002,0.166-0.006h0.426c0.48,0.822,1.077,1.564,1.769,2.211h-1.966   c-1.104,0-2,0.895-2,2c0,1.104,0.896,2,2,2h17.157c1.104,0,2-0.896,2-2c0-1.105-0.896-2-2-2h-1.966   c0.692-0.646,1.289-1.389,1.769-2.211h14.484c-0.337,1.498-1.051,2.896-2.09,4.064c-0.535,0.6-0.658,1.463-0.312,2.189   c2.199,4.621,6.107,8.156,10.864,9.875V64.744z"></path><circle cx="69.723" cy="55.621" r="2.367"></circle><path d="M53.332,25.225c5.354,0,9.711-4.355,9.711-9.709c0-5.355-4.356-9.713-9.711-9.713s-9.711,4.357-9.711,9.713   C43.621,20.869,47.978,25.225,53.332,25.225z M53.332,9.803c3.149,0,5.711,2.562,5.711,5.713c0,3.148-2.562,5.709-5.711,5.709   s-5.711-2.561-5.711-5.709C47.621,12.365,50.183,9.803,53.332,9.803z"></path></g></svg>